<svg data-v-73fdaaa2="" version="1.0" xmlns="http://www.w3.org/2000/svg" xmlns:xlink="http://www.w3.org/1999/xlink" width="100%" height="100%" viewBox="0 0 340.000000 250.000000" preserveAspectRatio="xMidYMid meet" color-interpolation-filters="sRGB" class="el-tooltip" style="margin: auto;"><rect data-v-73fdaaa2="" x="0" y="0" width="100%" height="100%" fill="#187fc4" fill-opacity="0"></rect> <rect data-v-73fdaaa2="" x="0" y="0" width="100%" height="100%" fill="url(#watermark)" fill-opacity="1" class="watermarklayer"></rect> <g data-v-73fdaaa2="" fill="#fff" class="icon-svg-group iconsvg" transform="translate(115.6199951171875,69.10375213623047)"><g class="iconsvg-imagesvg" transform="translate(32.455427169799805,0)"><rect fill="#fff" fill-opacity="0" stroke-width="2" x="0" y="0" width="43.849154746424" height="60"></rect> <svg filter="url(#colors6429179879)" x="0" y="0" width="43.849154746424" height="60" class="imagesvg-svg"><svg xmlns="http://www.w3.org/2000/svg" viewBox="0 0 22.48 30.76"><defs><linearGradient id="a339b3ad8-a8f9-423c-bcff-05344b48f4dc" x1="7.58" y1="30.76" x2="7.58" gradientUnits="userSpaceOnUse"><stop offset="0" stop-color="#13AFAF"></stop><stop offset="1" stop-color="#0A9230"></stop></linearGradient></defs><g><g><path fill="#187fc4" d="M11.21 10.6L14.68 0h7.8l-7.32 22.85-3.95-12.25z"></path><path d="M15.16 22.85v7.91H7.3v-7.91L0 0h7.78l3.43 10.6z" fill="url(#a339b3ad8-a8f9-423c-bcff-05344b48f4dc)"></path></g></g></svg></svg> <defs><filter id="colors6429179879"><feColorMatrix type="matrix" values="0 0 0 0 0.99609375  0 0 0 0 0.99609375  0 0 0 0 0.99609375  0 0 0 1 0"></feColorMatrix></filter></defs></g> <g transform="translate(0,67)"><g class="tp-name iconsvg-namesvg" transform="translate(0.000003814697265625,0)"><g><path transform="translate(-0.84,28.84)" d="M26.12-28.84L30.36-28.84L30.36-5.16L30.36-5.16Q30.36-4.64 30.72-4.28L30.72-4.28L30.72-4.28Q31.08-3.92 31.60-3.92L31.60-3.92L35.96-3.92L34.52 0.04L30.52 0.04L30.52 0.04Q29.60 0.04 28.80-0.30L28.80-0.30L28.80-0.30Q28-0.64 27.40-1.24L27.40-1.24L27.40-1.24Q26.80-1.84 26.46-2.64L26.46-2.64L26.46-2.64Q26.12-3.44 26.12-4.36L26.12-4.36L26.12-28.84ZM35.96-25.80L34.24-16.84L30.48-16.84L32.20-25.80L35.96-25.80ZM34.28-15.56L35.96-5.72L32.20-5.72L30.48-15.56L34.28-15.56ZM16.52-16.84L14.80-25.80L18.60-25.80L20.28-16.84L16.52-16.84ZM18.56-5.72L14.80-5.72L16.52-15.56L20.28-15.56L18.56-5.72ZM12.80-14.52L12.80-9.08L12.80-9.08Q12.32-7.64 10.68-5.88L10.68-5.88L10.68-5.88Q12.36-4.80 14.04-4.04L14.04-4.04L14.04 0.04L14.04 0.04Q12.36-0.36 10.66-1.20L10.66-1.20L10.66-1.20Q8.96-2.04 7.44-3.08L7.44-3.08L7.44-3.08Q5.92-2.04 4.24-1.20L4.24-1.20L4.24-1.20Q2.56-0.36 0.84 0.04L0.84 0.04L0.84-4.04L0.84-4.04Q1.72-4.44 2.56-4.90L2.56-4.90L2.56-4.90Q3.40-5.36 4.24-5.88L4.24-5.88L4.24-5.88Q2.64-7.60 2.08-9.08L2.08-9.08L2.08-21.52L0.84-21.52L0.84-25.44L2.08-25.44L2.08-28.84L6.28-28.84L6.28-25.44L8.60-25.44L8.60-28.84L12.80-28.84L12.80-25.44L14.04-25.44L14.04-21.52L12.80-21.52L12.80-14.52ZM6.28-21.52L6.28-9.44L6.28-9.44Q6.60-9.12 6.86-8.86L6.86-8.86L6.86-8.86Q7.12-8.60 7.44-8.36L7.44-8.36L7.44-8.36Q8.12-8.88 8.60-9.44L8.60-9.44L8.60-21.52L6.28-21.52ZM24.68-7.72L20.80 0.04L16.24 0.04L20.44-8.56L20.44-28.84L24.68-28.84L24.68-7.72ZM71.72-27L63.68-17.72L63.60-17.72L71.96-6.64L65.84-6.64L57.48-17.72L57.48-17.72L65.52-27L71.72-27ZM38.44-0.12L52.00-24.52L37.68-24.52L37.68-28.72L61.12-28.72L47.48-4.28L72.68-4.28L71.16-0.12L45.16-0.12L39.92-0.12L38.44-0.12ZM109.12-23.24L109.12-20L109.12-20Q109.12-19.08 108.78-18.28L108.78-18.28L108.78-18.28Q108.44-17.48 107.84-16.88L107.84-16.88L107.84-16.88Q107.24-16.28 106.44-15.94L106.44-15.94L106.44-15.94Q105.64-15.60 104.76-15.60L104.76-15.60L75.32-15.60L75.32-23.24L109.12-23.24ZM103.76-19.52L103.76-20.60L80.72-20.60L80.72-18.28L102.52-18.28L102.52-18.28Q103.04-18.28 103.40-18.64L103.40-18.64L103.40-18.64Q103.76-19 103.76-19.52L103.76-19.52ZM74.68-7.12L74.68-13.88L106.60-13.88L106.60-13.88Q107.84-13.88 108.72-13L108.72-13L108.72-13Q109.60-12.12 109.60-10.88L109.60-10.88L109.60-7.12L105.24-7.12L105.24-3.92L105.24-3.92Q105.24-3.36 105.60-3L105.60-3L105.60-3Q105.96-2.64 106.52-2.64L106.52-2.64L108.64-2.64L107.44 0.04L103.92 0.04L103.92 0.04Q103.12 0.04 102.44-0.26L102.44-0.26L102.44-0.26Q101.76-0.56 101.26-1.06L101.26-1.06L101.26-1.06Q100.76-1.56 100.46-2.24L100.46-2.24L100.46-2.24Q100.16-2.92 100.16-3.72L100.16-3.72L100.16-4.92L83.88-4.92L83.88-3.44L81.04-0.08L75.12-0.08L78.36-3.88L78.36-7.12L74.68-7.12ZM103.64-10.76L79.28-10.76L79.28-8.68L79.84-8.68L83.88-8.68L100.16-8.68L103.88-8.68L104.52-8.68L104.52-9.88L104.52-9.88Q104.52-10.24 104.26-10.50L104.26-10.50L104.26-10.50Q104.00-10.76 103.64-10.76L103.64-10.76ZM95.96-24.52L89.80-24.52L74.40-24.52L74.40-27.60L88.88-27.60L88.52-28.84L94.68-28.84L95.04-27.60L109.60-27.60L109.60-24.52L95.96-24.52Z"></path></g> <!----> <!----> <!----> <!----> <!----> <!----> <!----></g> <g class="tp-slogan iconsvg-slogansvg" transform="translate(0,35.84000015258789)"><!----> <rect x="0" height="1" y="3.9750003814697266" width="8.72500228881836"></rect> <rect height="1" y="3.9750003814697266" width="8.72500228881836" x="100.03499984741211"></rect> <g transform="translate(11.72500228881836,0)"><path transform="translate(-0.1875,8.8125)" d="M7.83-8.58L4.59-3.47L4.59 0L3.42 0L3.42-3.47L0.19-8.58L1.55-8.58L3.98-4.45L6.47-8.58L7.83-8.58ZM14.53 0L13.69-2.48L10.22-2.48L9.33 0L8.16 0L11.39-8.58L12.70-8.58L15.80 0L14.53 0ZM11.95-7.31L10.59-3.52L13.27-3.52L12-7.31L11.95-7.31ZM23.63-4.27L23.63-4.27L23.63-4.27Q23.44-7.64 20.63-7.83L20.63-7.83L20.63-7.83Q17.77-7.69 17.63-4.27L17.63-4.27L17.63-4.27Q17.77-0.94 20.63-0.80L20.63-0.80L20.63-0.80Q23.44-0.98 23.63-4.27ZM24.80-4.27L24.80-4.27L24.80-4.27Q24.52 0 20.63 0.14L20.63 0.14L20.63 0.14Q16.69 0 16.41-4.27L16.41-4.27L16.41-4.27Q16.64-8.72 20.63-8.81L20.63-8.81L20.63-8.81Q24.52-8.67 24.80-4.27ZM35.02-3.89L30.80-3.89L30.80 0L29.63 0L29.63-8.58L35.58-8.58L35.58-7.59L30.80-7.59L30.80-4.92L35.02-4.92L35.02-3.89ZM38.06-1.03L43.22-1.03L43.22 0L36.89 0L36.89-8.58L43.13-8.58L43.13-7.59L38.06-7.59L38.06-4.92L42.75-4.92L42.75-3.89L38.06-3.89L38.06-1.03ZM44.91-8.58L46.08-8.58L46.08 0L44.91 0L44.91-8.58ZM51.38-8.58L52.55-8.58L52.55-1.03L56.91-1.03L56.91 0L51.38 0L51.38-8.58ZM58.22-8.58L59.39-8.58L59.39 0L58.22 0L58.22-8.58ZM67.03 0L66.19-2.48L62.72-2.48L61.83 0L60.66 0L63.89-8.58L65.20-8.58L68.30 0L67.03 0ZM64.45-7.31L63.09-3.52L65.77-3.52L64.50-7.31L64.45-7.31ZM70.73-8.58L75.05-1.64L75.05-8.58L76.17-8.58L76.17 0L74.86 0L70.50-6.94L70.45-6.94L70.45 0L69.33 0L69.33-8.58L70.73-8.58ZM84.38-3.61L81.75-3.61L81.75-4.59L85.50-4.59L85.50 0L84.75 0L84.47-1.08L84.47-1.08Q83.48 0.09 81.66 0.14L81.66 0.14L81.66 0.14Q79.92 0.14 78.98-0.75L78.98-0.75L78.98-0.75Q77.58-2.06 77.63-4.36L77.63-4.36L77.63-4.36Q77.95-8.63 81.70-8.81L81.70-8.81L81.70-8.81Q84.89-8.63 85.36-6L85.36-6L84.23-6L84.23-6Q83.77-7.78 81.66-7.83L81.66-7.83L81.66-7.83Q78.98-7.64 78.84-4.31L78.84-4.31L78.84-4.31Q78.84-0.75 81.70-0.75L81.70-0.75L81.70-0.75Q82.73-0.75 83.48-1.31L83.48-1.31L83.48-1.31Q84.42-2.06 84.38-3.61L84.38-3.61Z"></path></g></g></g></g></svg>